Coordinates
version=1
nRows=11
nColumns=36
inDegrees=yes

Units are S.I. units (second, meters, Newtons, ...)
If the header above contains a line with 'inDegrees', this indicates whether rotational values are in degrees (yes) or radians (no).

endheader
time	pelvis_tilt	pelvis_list	pelvis_rotation	pelvis_tx	pelvis_ty	pelvis_tz	hip_flexion_r	hip_adduction_r	hip_rotation_r	knee_angle_r	knee_angle_r_beta	ankle_angle_r	subtalar_angle_r	mtp_angle_r	hip_flexion_l	hip_adduction_l	hip_rotation_l	knee_angle_l	knee_angle_l_beta	ankle_angle_l	subtalar_angle_l	mtp_angle_l	lumbar_extension	lumbar_bending	lumbar_rotation	arm_flex_r	arm_add_r	arm_rot_r	elbow_flex_r	pro_sup_r	arm_flex_l	arm_add_l	arm_rot_l	elbow_flex_l	pro_sup_l
      1.12000000	      2.64752368	      2.66482746	     -2.32764268	      1.05736581	      0.89853651	     -0.27492301	     24.74984187	     -4.42073104	     -1.43033113	     26.18349235	      0.45698815	      2.95215768	    -17.40878164	     -7.38404674	    -10.96865710	      4.26766714	     -8.05807446	      6.92164112	      0.12080543	     15.94258310	     10.58495112	     -7.38404674	    -15.60626245	     -9.45180594	     -8.66168734	      1.57604897	     -6.92268712	     -0.07340474	     30.29575963	     94.95083268	     11.76184673	    -12.69334864	     14.88296193	     30.19483702	     91.69787755
      1.13000000	      2.72776061	      2.62208026	     -2.35792046	      1.06774164	      0.89703233	     -0.27470082	     24.55035000	     -4.28305171	     -1.40924949	     23.15324062	      0.40410028	      3.36741031	    -16.04814138	     -7.38619186	    -11.86427091	      4.25142449	     -8.19104209	      6.86721876	      0.11985558	     16.50535900	     10.67933862	     -7.38619186	    -15.62593461	     -8.95127811	     -8.77964161	      1.67517000	     -6.81308130	     -0.68460222	     29.79373842	     94.78461974	     11.84898501	    -12.53461567	     15.04150612	     30.26160954	     91.91727358
      1.14000000	      2.58957882	      2.60610837	     -2.28694525	      1.07820094	      0.89522746	     -0.27440842	     24.54011176	     -4.18183481	     -1.21626302	     20.21789235	      0.35286879	      3.94670983	    -14.38632139	     -7.38858782	    -12.41856326	      4.19486811	     -8.22778159	      7.03097528	      0.12271367	     17.00082068	     10.87369732	     -7.38858782	    -15.40802439	     -8.45098865	     -8.90887591	      1.63282808	     -6.75114018	     -1.30803272	     29.40071309	     94.60391773	     11.89378896	    -12.42805773	     15.12712334	     30.27209372	     92.14795584
      1.15000000	      2.43453490	      2.62480141	     -2.13975842	      1.08880283	      0.89334842	     -0.27415246	     24.58748618	     -4.22356996	     -1.30738051	     17.60229653	      0.30721803	      5.18084503	    -11.71307574	     -7.39514795	    -12.85745848	      4.11745522	     -8.38581378	      7.38938735	      0.12896914	     17.55744057	     11.50828732	     -7.39514795	    -15.16292582	     -7.96803985	     -9.07066498	      1.51110937	     -6.59087138	     -2.31943161	     29.21511159	     94.23289421	     11.95359917	    -12.25527523	     15.17940479	     30.17072010	     92.71013937
      1.16000000	      2.08666638	      2.68931613	     -1.93615968	      1.09939231	      0.89124745	     -0.27375388	     24.77462231	     -4.21807447	     -0.73675745	     15.04308612	      0.26255138	      5.50778892	    -10.61445649	     -7.39605393	    -13.00601780	      4.07113256	     -8.19856625	      7.88895072	      0.13768816	     17.82010166	     11.45039252	     -7.39605393	    -14.70295328	     -7.55465920	     -9.29119901	      1.38960749	     -6.52718016	     -2.53803029	     28.90526983	     94.15011649	     11.91295239	    -12.11405878	     15.21091516	     30.15677712	     92.78387865
      1.17000000	      1.94054674	      2.66728060	     -1.66158910	      1.11012304	      0.88946670	     -0.27340199	     24.66664722	     -4.19694847	     -0.13145664	     12.66595395	      0.22106260	      5.99483904	     -9.09308827	     -7.39732809	    -13.31283608	      3.89701832	     -8.14535583	      8.52265575	      0.14874840	     18.29229535	     11.39418410	     -7.39732809	    -14.48773103	     -7.00220339	     -9.62080573	      1.41974111	     -6.41796563	     -2.94702374	     28.45756710	     94.00163024	     11.87395212	    -11.94915454	     15.20638477	     30.02945787	     92.86803219
      1.18000000	      1.94705870	      2.66724515	     -1.26703746	      1.12109688	      0.88790946	     -0.27315202	     24.45461757	     -4.35389677	     -0.19350455	     10.75271804	      0.18767033	      7.23470799	     -6.43915957	     -7.40175185	    -13.73137064	      3.66320509	     -8.30404682	      9.26039932	      0.16162446	     18.87573265	     12.00697193	     -7.40175185	    -14.43530498	     -6.47971262	     -9.91183509	      1.36203362	     -6.22342830	     -3.91478729	     28.02062082	     93.58875557	     11.92257445	    -11.69732760	     15.05091392	     29.84432452	     93.14610069
      1.19000000	      1.69077603	      2.77217483	     -0.83077652	      1.13212548	      0.88605994	     -0.27281461	     24.49852663	     -4.54662261	      0.57097699	      9.10491567	      0.15891076	      7.67234798	     -5.56315262	     -7.40252795	    -13.81865090	      3.54195486	     -8.05377704	     10.04667025	      0.17534747	     18.89770476	     12.02854017	     -7.40252795	    -14.07553352	     -6.06309046	    -10.27535399	      1.15160416	     -6.16709672	     -4.11588545	     27.83177660	     93.50526499	     11.83709448	    -11.51498957	     15.05525690	     29.74776593	     93.18722208
      1.20000000	      1.70136212	      2.75264490	     -0.35752557	      1.14338027	      0.88460121	     -0.27247954	     24.24439526	     -4.69407223	      0.92863226	      7.87246825	      0.13740049	      8.55410366	     -3.66008864	     -7.40796052	    -14.15184107	      3.20439995	     -8.25435753	     10.96429650	      0.19136307	     19.33557944	     12.65836882	     -7.40796052	    -14.00331865	     -5.46555010	    -10.62381342	      1.06526163	     -5.96315482	     -5.16210047	     27.55764262	     93.03192483	     11.79215190	    -11.23454356	     14.80797930	     29.48927413	     93.44839802
      1.21000000	      1.66774846	      2.76592824	      0.14170493	      1.15481244	      0.88314336	     -0.27203379	     24.00056578	     -4.83876154	      1.66389011	      6.96217253	      0.12151283	      8.84744883	     -3.02823182	     -7.40977950	    -14.44996312	      2.90217559	     -8.15709216	     11.84176440	      0.20667778	     19.41477681	     12.69950923	     -7.40977950	    -13.85724347	     -4.94243473	    -10.97066255	      0.91638715	     -5.86152519	     -5.50859667	     27.21865580	     92.87160594	     11.70855361	    -10.99974854	     14.74197689	     29.30534853	     93.51084000
      1.22000000	      1.67532100	      2.80606379	      0.65840152	      1.16636463	      0.88180106	     -0.27158683	     23.80514102	     -5.02289583	      2.20607826	      6.63214713	      0.11575280	      8.97534011	     -2.75156920	     -7.41029757	    -14.79482250	      2.62126964	     -7.81566398	     12.70204202	      0.22169245	     19.16495711	     12.85521491	     -7.41029757	    -13.76981569	     -4.41741646	    -11.21299870	      0.68770087	     -5.81789058	     -5.67098140	     26.98572500	     92.80485132	     11.64975416	    -10.70720597	     14.72526610	     29.23727882	     93.52308635
